<svg width="60" height="60" viewBox="0 0 60 60" fill="none" xmlns="http://www.w3.org/2000/svg">
<circle cx="30" cy="30" r="24.5" stroke="#1A1A1E"/>
<path fill-rule="evenodd" clip-rule="evenodd" d="M27.7168 37.5565V38.4194H30.6092V37.5565C30.6305 36.3846 30.7637 35.3991 31.0087 34.6001C31.2538 33.7905 31.6586 33.0714 32.2232 32.4428C32.7879 31.8143 33.5496 31.1804 34.5084 30.5412C35.5205 29.8807 36.3621 29.1776 37.0332 28.4318C37.7151 27.6861 38.2264 26.8711 38.5673 25.9869C38.9082 25.1026 39.0787 24.1225 39.0787 23.0465C39.0787 21.4165 38.7005 19.973 37.9441 18.7159C37.1877 17.4482 36.1384 16.4521 34.796 15.7276C33.4537 14.9925 31.8983 14.625 30.1298 14.625C28.4359 14.625 26.9019 14.9819 25.5276 15.6957C24.1533 16.3988 23.056 17.3949 22.2357 18.6839C21.4153 19.973 20.9786 21.4964 20.9253 23.2543H23.9455C23.9988 21.9332 24.3131 20.8253 24.8884 19.9304C25.4743 19.0249 26.2254 18.343 27.1416 17.8849C28.0684 17.4162 29.0645 17.1818 30.1298 17.1818C31.2484 17.1818 32.2658 17.4215 33.182 17.9009C34.0982 18.3697 34.8227 19.0355 35.3553 19.8984C35.8987 20.7614 36.1703 21.7681 36.1703 22.9187C36.1703 23.7283 36.0265 24.4794 35.7389 25.1719C35.4619 25.8537 35.0517 26.4822 34.5084 27.0575C33.9757 27.6222 33.3152 28.1602 32.5269 28.6715C31.4722 29.3427 30.5879 30.0458 29.8742 30.7809C29.171 31.5053 28.6384 32.3949 28.2761 33.4496C27.9139 34.5043 27.7275 35.8732 27.7168 37.5565Z" fill="black"/>
<rect x="27.6753" y="42.125" width="3.25" height="3.25" fill="#1A1A1E"/>
</svg>
