<svg width="80" height="80" viewBox="0 0 80 80" fill="none" xmlns="http://www.w3.org/2000/svg">
<path d="M40.0067 24.6168C31.4936 24.6168 24.6269 31.485 24.6269 40C24.6269 48.515 31.4936 55.3832 40.0067 55.3832C48.5198 55.3832 55.3865 48.515 55.3865 40C55.3865 31.485 48.5198 24.6168 40.0067 24.6168ZM40.0067 50.0011C34.5053 50.0011 30.0078 45.516 30.0078 40C30.0078 34.484 34.4919 29.9989 40.0067 29.9989C45.5215 29.9989 50.0056 34.484 50.0056 40C50.0056 45.516 45.5081 50.0011 40.0067 50.0011V50.0011ZM59.6029 23.9875C59.6029 25.9824 57.9967 27.5756 56.0156 27.5756C54.0212 27.5756 52.4283 25.969 52.4283 23.9875C52.4283 22.006 54.0346 20.3994 56.0156 20.3994C57.9967 20.3994 59.6029 22.006 59.6029 23.9875ZM69.7892 27.6291C69.5616 22.8227 68.464 18.5652 64.9437 15.0575C61.4367 11.5497 57.1801 10.4519 52.3748 10.2109C47.4222 9.92971 32.5778 9.92971 27.6252 10.2109C22.8332 10.4385 18.5767 11.5363 15.0563 15.0441C11.536 18.5518 10.4518 22.8093 10.2108 27.6158C9.92973 32.5695 9.92973 47.4172 10.2108 52.3709C10.4384 57.1773 11.536 61.4348 15.0563 64.9425C18.5767 68.4503 22.8199 69.5481 27.6252 69.7891C32.5778 70.0703 47.4222 70.0703 52.3748 69.7891C57.1801 69.5615 61.4367 68.4637 64.9437 64.9425C68.4506 61.4348 69.5482 57.1773 69.7892 52.3709C70.0703 47.4172 70.0703 32.5828 69.7892 27.6291V27.6291ZM63.391 57.686C62.3469 60.3102 60.3257 62.3318 57.6888 63.3895C53.7401 64.9559 44.3703 64.5944 40.0067 64.5944C35.6431 64.5944 26.2599 64.9425 22.3246 63.3895C19.7011 62.3452 17.6799 60.3236 16.6224 57.686C15.0563 53.7365 15.4177 44.3646 15.4177 40C15.4177 35.6354 15.0697 26.2501 16.6224 22.314C17.6665 19.6898 19.6877 17.6682 22.3246 16.6105C26.2733 15.0441 35.6431 15.4056 40.0067 15.4056C44.3703 15.4056 53.7535 15.0575 57.6888 16.6105C60.3123 17.6548 62.3335 19.6764 63.391 22.314C64.9571 26.2635 64.5957 35.6354 64.5957 40C64.5957 44.3646 64.9571 53.7499 63.391 57.686Z" fill="#444444"/>
</svg>
