<svg width="80" height="80" viewBox="0 0 80 80" fill="none" xmlns="http://www.w3.org/2000/svg">
<path d="M63.8326 26.6246C63.8707 27.2079 63.8707 27.7914 63.8707 28.3747C63.8707 46.1663 51.4977 66.6663 28.8833 66.6663C21.9163 66.6663 15.4442 64.4579 10 60.6247C10.9899 60.7497 11.9416 60.7913 12.9695 60.7913C18.7182 60.7913 24.0102 58.6664 28.2361 55.0414C22.83 54.9164 18.2995 51.0414 16.7385 45.708C17.5 45.8329 18.2614 45.9163 19.061 45.9163C20.165 45.9163 21.2691 45.7496 22.297 45.458C16.6625 44.2079 12.4365 38.7913 12.4365 32.2497V32.083C14.0735 33.0831 15.9772 33.708 17.9948 33.7913C14.6826 31.3746 12.5126 27.2496 12.5126 22.5829C12.5126 20.083 13.1217 17.7913 14.1877 15.7913C20.2411 23.9579 29.3401 29.2912 39.5431 29.8746C39.3528 28.8746 39.2385 27.833 39.2385 26.7914C39.2385 19.3746 44.7208 13.333 51.5355 13.333C55.0761 13.333 58.2741 14.958 60.5203 17.583C63.2994 16.9997 65.9644 15.8746 68.3249 14.333C67.4111 17.4581 65.4695 20.0831 62.9188 21.7496C65.3935 21.4581 67.7919 20.7079 70 19.6664C68.3252 22.3329 66.2311 24.7078 63.8326 26.6246V26.6246Z" fill="#444444"/>
</svg>
